<svg xmlns="http://www.w3.org/2000/svg" class="ts-loader" viewBox="0 0 512 512" width="512" height="512">
  <path class="ts-ghost" d="M85.50 66.25 L88.50 66.25 L90.25 66.75 L92.25 68.25 L93.75 68.75 L95.75 71.00 L97.75 72.00 L99.00 73.25 L101.75 74.25 L103.50 76.25 L106.50 76.75 L108.75 78.50 L110.25 79.00 L243.50 79.00 L246.75 79.75 L254.25 87.00 L255.50 87.25 L259.25 87.25 L262.25 86.25 L269.00 79.75 L271.50 79.00 L402.50 79.00 L406.75 76.75 L410.25 75.75 L423.25 66.50 L428.25 66.25 L429.75 67.50 L430.50 71.75 L432.25 76.00 L432.75 84.25 L435.00 90.00 L435.25 96.50 L437.50 104.25 L438.00 111.50 L439.25 116.00 L439.25 117.75 L438.25 118.75 L436.50 119.50 L283.00 119.25 L278.50 121.50 L271.75 128.00 L268.75 131.75 L266.50 133.75 L264.25 134.50 L249.00 134.25 L245.50 130.25 L240.75 126.00 L239.25 124.00 L238.00 123.25 L236.50 121.25 L232.50 119.00 L76.00 119.50 L74.75 119.00 L73.75 117.25 L74.00 113.25 L76.25 106.25 L76.75 98.00 L79.00 92.50 L79.25 84.75 L81.50 78.75 L82.00 69.50 L83.25 67.25 L85.25 66.50 Z M70.50 142.75 L75.00 143.00 L78.00 145.00 L80.00 147.25 L86.50 151.00 L88.00 152.75 L91.75 153.25 L96.50 155.50 L221.25 155.75 L222.75 156.25 L227.25 161.25 L233.75 167.00 L236.00 172.50 L236.00 354.50 L231.50 359.75 L225.25 366.00 L222.75 366.75 L185.00 366.75 L183.75 366.25 L182.75 365.25 L182.50 364.25 L182.75 361.50 L184.75 357.25 L187.25 355.00 L188.00 353.25 L189.50 351.50 L190.50 349.00 L192.25 347.25 L193.00 343.25 L195.25 339.25 L195.25 197.75 L194.75 196.25 L193.75 195.50 L119.25 195.50 L110.75 197.25 L102.50 198.00 L100.25 199.75 L96.25 201.00 L94.25 202.75 L92.50 203.25 L90.50 205.00 L88.00 206.00 L83.50 210.75 L81.75 212.00 L81.25 213.25 L79.50 215.00 L78.00 218.00 L76.50 219.50 L75.75 221.50 L74.00 223.50 L73.25 226.00 L71.25 229.25 L70.75 233.50 L70.00 234.25 L66.00 234.50 L61.00 232.25 L55.00 231.50 L53.00 229.75 L52.50 228.50 L53.00 220.50 L55.25 214.50 L55.75 206.00 L57.75 201.25 L58.25 193.25 L60.50 186.75 L60.75 180.25 L63.00 172.25 L63.75 162.25 L65.75 157.00 L66.50 148.00 L68.75 143.50 L70.25 143.00 Z M439.25 142.75 L442.75 142.75 L445.00 143.75 L445.75 145.75 L446.25 150.00 L447.75 153.50 L448.75 164.25 L451.00 172.00 L451.25 179.00 L453.25 184.25 L454.00 193.75 L455.75 197.25 L456.25 199.50 L456.50 206.25 L458.75 213.75 L459.25 222.00 L461.25 227.00 L461.00 229.00 L458.00 231.50 L452.00 232.25 L447.00 234.50 L443.75 234.25 L443.00 233.25 L442.75 231.00 L440.75 228.25 L440.25 225.50 L438.25 223.25 L437.50 220.25 L430.50 211.75 L424.25 206.00 L422.75 205.25 L421.00 203.25 L419.00 202.75 L416.50 200.75 L413.50 200.00 L410.50 198.00 L405.50 197.75 L401.75 196.50 L395.75 195.75 L385.50 195.50 L320.25 195.50 L318.00 197.50 L317.25 199.25 L317.50 396.50 L316.00 399.50 L306.00 409.00 L300.00 415.50 L281.75 433.25 L278.00 437.50 L270.50 444.75 L267.75 446.00 L196.75 446.25 L195.25 444.50 L195.00 432.75 L193.00 429.75 L192.50 426.25 L190.50 423.75 L189.50 420.75 L184.75 416.00 L183.00 413.00 L182.75 408.00 L183.50 407.00 L185.00 406.50 L251.25 406.25 L255.00 403.50 L256.25 401.75 L260.25 398.25 L261.50 396.50 L262.75 395.75 L276.75 381.25 L277.25 377.50 L277.00 173.25 L277.25 170.25 L277.75 169.25 L281.75 165.75 L282.50 164.50 L291.50 155.75 L414.50 155.75 L418.00 155.00 L420.25 153.50 L424.50 152.75 L426.25 151.00 L428.75 150.00 L430.50 148.25 L432.75 147.25 L434.25 145.75 L439.00 143.00 Z" fill="rgba(242,241,236,0.10)"></path>
  <path class="ts-ink" d="M85.50 66.25 L88.50 66.25 L90.25 66.75 L92.25 68.25 L93.75 68.75 L95.75 71.00 L97.75 72.00 L99.00 73.25 L101.75 74.25 L103.50 76.25 L106.50 76.75 L108.75 78.50 L110.25 79.00 L243.50 79.00 L246.75 79.75 L254.25 87.00 L255.50 87.25 L259.25 87.25 L262.25 86.25 L269.00 79.75 L271.50 79.00 L402.50 79.00 L406.75 76.75 L410.25 75.75 L423.25 66.50 L428.25 66.25 L429.75 67.50 L430.50 71.75 L432.25 76.00 L432.75 84.25 L435.00 90.00 L435.25 96.50 L437.50 104.25 L438.00 111.50 L439.25 116.00 L439.25 117.75 L438.25 118.75 L436.50 119.50 L283.00 119.25 L278.50 121.50 L271.75 128.00 L268.75 131.75 L266.50 133.75 L264.25 134.50 L249.00 134.25 L245.50 130.25 L240.75 126.00 L239.25 124.00 L238.00 123.25 L236.50 121.25 L232.50 119.00 L76.00 119.50 L74.75 119.00 L73.75 117.25 L74.00 113.25 L76.25 106.25 L76.75 98.00 L79.00 92.50 L79.25 84.75 L81.50 78.75 L82.00 69.50 L83.25 67.25 L85.25 66.50 Z M70.50 142.75 L75.00 143.00 L78.00 145.00 L80.00 147.25 L86.50 151.00 L88.00 152.75 L91.75 153.25 L96.50 155.50 L221.25 155.75 L222.75 156.25 L227.25 161.25 L233.75 167.00 L236.00 172.50 L236.00 354.50 L231.50 359.75 L225.25 366.00 L222.75 366.75 L185.00 366.75 L183.75 366.25 L182.75 365.25 L182.50 364.25 L182.75 361.50 L184.75 357.25 L187.25 355.00 L188.00 353.25 L189.50 351.50 L190.50 349.00 L192.25 347.25 L193.00 343.25 L195.25 339.25 L195.25 197.75 L194.75 196.25 L193.75 195.50 L119.25 195.50 L110.75 197.25 L102.50 198.00 L100.25 199.75 L96.25 201.00 L94.25 202.75 L92.50 203.25 L90.50 205.00 L88.00 206.00 L83.50 210.75 L81.75 212.00 L81.25 213.25 L79.50 215.00 L78.00 218.00 L76.50 219.50 L75.75 221.50 L74.00 223.50 L73.25 226.00 L71.25 229.25 L70.75 233.50 L70.00 234.25 L66.00 234.50 L61.00 232.25 L55.00 231.50 L53.00 229.75 L52.50 228.50 L53.00 220.50 L55.25 214.50 L55.75 206.00 L57.75 201.25 L58.25 193.25 L60.50 186.75 L60.75 180.25 L63.00 172.25 L63.75 162.25 L65.75 157.00 L66.50 148.00 L68.75 143.50 L70.25 143.00 Z M439.25 142.75 L442.75 142.75 L445.00 143.75 L445.75 145.75 L446.25 150.00 L447.75 153.50 L448.75 164.25 L451.00 172.00 L451.25 179.00 L453.25 184.25 L454.00 193.75 L455.75 197.25 L456.25 199.50 L456.50 206.25 L458.75 213.75 L459.25 222.00 L461.25 227.00 L461.00 229.00 L458.00 231.50 L452.00 232.25 L447.00 234.50 L443.75 234.25 L443.00 233.25 L442.75 231.00 L440.75 228.25 L440.25 225.50 L438.25 223.25 L437.50 220.25 L430.50 211.75 L424.25 206.00 L422.75 205.25 L421.00 203.25 L419.00 202.75 L416.50 200.75 L413.50 200.00 L410.50 198.00 L405.50 197.75 L401.75 196.50 L395.75 195.75 L385.50 195.50 L320.25 195.50 L318.00 197.50 L317.25 199.25 L317.50 396.50 L316.00 399.50 L306.00 409.00 L300.00 415.50 L281.75 433.25 L278.00 437.50 L270.50 444.75 L267.75 446.00 L196.75 446.25 L195.25 444.50 L195.00 432.75 L193.00 429.75 L192.50 426.25 L190.50 423.75 L189.50 420.75 L184.75 416.00 L183.00 413.00 L182.75 408.00 L183.50 407.00 L185.00 406.50 L251.25 406.25 L255.00 403.50 L256.25 401.75 L260.25 398.25 L261.50 396.50 L262.75 395.75 L276.75 381.25 L277.25 377.50 L277.00 173.25 L277.25 170.25 L277.75 169.25 L281.75 165.75 L282.50 164.50 L291.50 155.75 L414.50 155.75 L418.00 155.00 L420.25 153.50 L424.50 152.75 L426.25 151.00 L428.75 150.00 L430.50 148.25 L432.75 147.25 L434.25 145.75 L439.00 143.00 Z" fill="none" stroke="#0EA5E9" stroke-width="10" stroke-linejoin="round" stroke-linecap="round"></path>
</svg>